<?xml version="1.0" encoding="windows-1252" standalone="no"?>
<svg xmlns="http://www.w3.org/2000/svg" xmlns:xlink="http://www.w3.org/1999/xlink" contentStyleType="text/css" height="226px" preserveAspectRatio="none" style="width:1017px;height:226px;background:#FFFFFF;" version="1.1" viewBox="0 0 1017 226" width="1017px" zoomAndPan="magnify"><defs/><g><ellipse cx="81.5" cy="16" fill="#222222" rx="10" ry="10" style="stroke:#222222;stroke-width:1.0;"/><g id="Proliférative"><rect fill="#F1F1F1" height="50.2656" rx="12.5" ry="12.5" style="stroke:#181818;stroke-width:0.5;" width="149" x="7" y="87"/><line style="stroke:#181818;stroke-width:0.5;" x1="7" x2="156" y1="113.2969" y2="113.2969"/><text fill="#000000" font-family="sans-serif" font-size="14" lengthAdjust="spacing" textLength="89" x="37" y="104.9951">Proliférative</text><text fill="#000000" font-family="sans-serif" font-size="12" lengthAdjust="spacing" textLength="129" x="12" y="129.4355">La cellule se multiplie</text></g><g id="Quiescente"><rect fill="#F1F1F1" height="50.2656" rx="12.5" ry="12.5" style="stroke:#181818;stroke-width:0.5;" width="138" x="323.5" y="87"/><line style="stroke:#181818;stroke-width:0.5;" x1="323.5" x2="461.5" y1="113.2969" y2="113.2969"/><text fill="#000000" font-family="sans-serif" font-size="14" lengthAdjust="spacing" textLength="81" x="352" y="104.9951">Quiescente</text><text fill="#000000" font-family="sans-serif" font-size="12" lengthAdjust="spacing" textLength="118" x="328.5" y="129.4355">Métabolisme ralenti</text></g><g id="Hypoxie"><rect fill="#F1F1F1" height="50.2656" rx="12.5" ry="12.5" style="stroke:#181818;stroke-width:0.5;" width="108" x="629.5" y="87"/><line style="stroke:#181818;stroke-width:0.5;" x1="629.5" x2="737.5" y1="113.2969" y2="113.2969"/><text fill="#000000" font-family="sans-serif" font-size="14" lengthAdjust="spacing" textLength="58" x="654.5" y="104.9951">Hypoxie</text><text fill="#000000" font-family="sans-serif" font-size="12" lengthAdjust="spacing" textLength="88" x="634.5" y="129.4355">Libère le VEGF</text></g><g id="Nécrose"><rect fill="#F1F1F1" height="50.2656" rx="12.5" ry="12.5" style="stroke:#181818;stroke-width:0.5;" width="105" x="905" y="87"/><line style="stroke:#181818;stroke-width:0.5;" x1="905" x2="1010" y1="113.2969" y2="113.2969"/><text fill="#000000" font-family="sans-serif" font-size="14" lengthAdjust="spacing" textLength="58" x="928.5" y="104.9951">Nécrose</text><text fill="#000000" font-family="sans-serif" font-size="12" lengthAdjust="spacing" textLength="85" x="910" y="129.4355">Mort cellulaire</text></g><ellipse cx="957.5" cy="209" fill="none" rx="11" ry="11" style="stroke:#222222;stroke-width:1.0;"/><ellipse cx="957.5" cy="209" fill="#222222" rx="6" ry="6" style="stroke:#222222;stroke-width:1.0;"/><!--link *start* to Prolif?rative--><g id="link_*start*_Proliférative"><path d="M81.5,26.013 C81.5,39.891 81.5,60.965 81.5,80.84 " fill="none" id="*start*-to-Proliférative" style="stroke:#181818;stroke-width:1.0;"/><polygon fill="#181818" points="81.5,86.84,85.5,77.84,81.5,81.84,77.5,77.84,81.5,86.84" style="stroke:#181818;stroke-width:1.0;"/></g><!--link Prolif?rative to Quiescente--><g id="link_Proliférative_Quiescente"><path d="M156.388,112 C207.163,112 267.788,112 317.315,112 " fill="none" id="Proliférative-to-Quiescente" style="stroke:#181818;stroke-width:1.0;"/><polygon fill="#181818" points="323.315,112,314.315,108,318.315,112,314.315,116,323.315,112" style="stroke:#181818;stroke-width:1.0;"/><text fill="#000000" font-family="sans-serif" font-size="13" lengthAdjust="spacing" textLength="131" x="174.25" y="105.0669">seuil(Oxygène) &lt; S1</text></g><!--link Quiescente to Prolif?rative--><g id="link_Quiescente_Proliférative"><path d="M323.068,129.5309 C317.405,130.5233 311.748,131.3709 306.25,132 C247.522,138.7199 232.021,138.3312 173.25,132 C167.658,131.3976 167.829,131.5588 162.063,130.6197 " fill="none" id="Quiescente-to-Proliférative" style="stroke:#181818;stroke-width:1.0;"/><polygon fill="#181818" points="156.141,129.6552,164.381,135.0499,161.076,130.459,165.667,127.154,156.141,129.6552" style="stroke:#181818;stroke-width:1.0;"/><text fill="#000000" font-family="sans-serif" font-size="13" lengthAdjust="spacing" textLength="131" x="174.25" y="128.0669">seuil(Oxygène) &gt; S1</text></g><!--link Quiescente to Hypoxie--><g id="link_Quiescente_Hypoxie"><path d="M461.832,112 C513.105,112 575.953,112 623.242,112 " fill="none" id="Quiescente-to-Hypoxie" style="stroke:#181818;stroke-width:1.0;"/><polygon fill="#181818" points="629.242,112,620.242,108,624.242,112,620.242,116,629.242,112" style="stroke:#181818;stroke-width:1.0;"/><text fill="#000000" font-family="sans-serif" font-size="13" lengthAdjust="spacing" textLength="131" x="480" y="105.0669">seuil(Oxygène) &lt; S2</text></g><!--link Hypoxie to Quiescente--><g id="link_Hypoxie_Quiescente"><path d="M629.17,128.8443 C623.418,130.1321 617.619,131.229 612,132 C553.438,140.0363 537.73,138.7012 479,132 C473.334,131.3535 473.4071,131.5167 467.5701,130.4887 " fill="none" id="Hypoxie-to-Quiescente" style="stroke:#181818;stroke-width:1.0;"/><polygon fill="#181818" points="461.661,129.448,469.8308,134.9484,466.5852,130.3152,471.2184,127.0697,461.661,129.448" style="stroke:#181818;stroke-width:1.0;"/><text fill="#000000" font-family="sans-serif" font-size="13" lengthAdjust="spacing" textLength="131" x="480" y="128.0669">seuil(Oxygène) &gt; S2</text></g><!--link Hypoxie to N?crose--><g id="link_Hypoxie_Nécrose"><path d="M737.634,112 C786.137,112 850.839,112 898.875,112 " fill="none" id="Hypoxie-to-Nécrose" style="stroke:#181818;stroke-width:1.0;"/><polygon fill="#181818" points="904.875,112,895.875,108,899.875,112,895.875,116,904.875,112" style="stroke:#181818;stroke-width:1.0;"/><text fill="#000000" font-family="sans-serif" font-size="13" lengthAdjust="spacing" textLength="131" x="755.75" y="105.0669">seuil(Oxygène) &lt; S3</text></g><!--link N?crose to *end*--><g id="link_Nécrose_*end*"><path d="M957.5,137.4649 C957.5,157.0364 957.5,177.4921 957.5,191.7967 " fill="none" id="Nécrose-to-*end*" style="stroke:#181818;stroke-width:1.0;"/><polygon fill="#181818" points="957.5,197.7967,961.5,188.7967,957.5,192.7967,953.5,188.7967,957.5,197.7967" style="stroke:#181818;stroke-width:1.0;"/></g><!--SRC=[XP6x2i9044Nx-OefDP12xKJI-IWI7mWs8SKQHXdOP6Mp4VD7oNViZxaHINo1vUpSS-zbDlOIzFq0jrf9Fjb62yDN0dYVSOgXm9IaB2LXGPYLql15CdqAdTMkP2fIoWrDdRHaETZSghEjSnhY3FSZW5w1Nz7VJD0oxyYgkgWR__OVmsk1o3P675r0aH5g8Tqh0ppvVss3rkr5kxPDgbNnEtS2_JfIsZpF9LWJT7r3FjfQ4xeh7kRB1NJCunDYBxa3]--></g></svg>