<?xml version="1.0" encoding="UTF-8" standalone="no"?>
<!-- Created with Inkscape (http://www.inkscape.org/) -->

<svg
   xmlns:dc="http://purl.org/dc/elements/1.1/"
   xmlns:cc="http://creativecommons.org/ns#"
   xmlns:rdf="http://www.w3.org/1999/02/22-rdf-syntax-ns#"
   xmlns:svg="http://www.w3.org/2000/svg"
   xmlns="http://www.w3.org/2000/svg"
   xmlns:sodipodi="http://sodipodi.sourceforge.net/DTD/sodipodi-0.dtd"
   xmlns:inkscape="http://www.inkscape.org/namespaces/inkscape"
   width="74.54348mm"
   height="68.828476mm"
   viewBox="0 0 74.543477 68.828476"
   version="1.1"
   id="svg1417"
   inkscape:version="0.92.5 (2060ec1f9f, 2020-04-08)"
   sodipodi:docname="vessel.svg">
  <defs
     id="defs1411">
    <marker
       inkscape:stockid="Arrow2Sstart"
       orient="auto"
       refY="0"
       refX="0"
       id="Arrow2Sstart"
       style="overflow:visible"
       inkscape:isstock="true">
      <path
         id="path893"
         style="fill:#000000;fill-opacity:1;fill-rule:evenodd;stroke:#000000;stroke-width:0.625;stroke-linejoin:round;stroke-opacity:1"
         d="M 8.7185878,4.0337352 -2.2072895,0.01601326 8.7185884,-4.0017078 c -1.7454984,2.3720609 -1.7354408,5.6174519 -6e-7,8.035443 z"
         transform="matrix(0.3,0,0,0.3,-0.69,0)"
         inkscape:connector-curvature="0" />
    </marker>
    <marker
       inkscape:stockid="Arrow1Send"
       orient="auto"
       refY="0"
       refX="0"
       id="Arrow1Send"
       style="overflow:visible"
       inkscape:isstock="true">
      <path
         id="path878"
         d="M 0,0 5,-5 -12.5,0 5,5 Z"
         style="fill:#000000;fill-opacity:1;fill-rule:evenodd;stroke:#000000;stroke-width:1.00000003pt;stroke-opacity:1"
         transform="matrix(-0.2,0,0,-0.2,-1.2,0)"
         inkscape:connector-curvature="0" />
    </marker>
    <marker
       inkscape:stockid="Arrow1Lstart"
       orient="auto"
       refY="0"
       refX="0"
       id="Arrow1Lstart"
       style="overflow:visible"
       inkscape:isstock="true">
      <path
         id="path863"
         d="M 0,0 5,-5 -12.5,0 5,5 Z"
         style="fill:#000000;fill-opacity:1;fill-rule:evenodd;stroke:#000000;stroke-width:1.00000003pt;stroke-opacity:1"
         transform="matrix(0.8,0,0,0.8,10,0)"
         inkscape:connector-curvature="0" />
    </marker>
    <marker
       inkscape:stockid="Arrow2Sstart"
       orient="auto"
       refY="0"
       refX="0"
       id="Arrow2Sstart-3"
       style="overflow:visible"
       inkscape:isstock="true">
      <path
         inkscape:connector-curvature="0"
         id="path893-6"
         style="fill:#000000;fill-opacity:1;fill-rule:evenodd;stroke:#000000;stroke-width:0.625;stroke-linejoin:round;stroke-opacity:1"
         d="M 8.7185878,4.0337352 -2.2072895,0.01601326 8.7185884,-4.0017078 c -1.7454984,2.3720609 -1.7354408,5.6174519 -6e-7,8.035443 z"
         transform="matrix(0.3,0,0,0.3,-0.69,0)" />
    </marker>
  </defs>
  <sodipodi:namedview
     id="base"
     pagecolor="#ffffff"
     bordercolor="#666666"
     borderopacity="1.0"
     inkscape:pageopacity="0.0"
     inkscape:pageshadow="2"
     inkscape:zoom="1.7249998"
     inkscape:cx="45.217249"
     inkscape:cy="99.910131"
     inkscape:document-units="mm"
     inkscape:current-layer="layer1"
     showgrid="false"
     fit-margin-top="0"
     fit-margin-left="0"
     fit-margin-right="0"
     fit-margin-bottom="0"
     inkscape:window-width="1920"
     inkscape:window-height="1149"
     inkscape:window-x="0"
     inkscape:window-y="25"
     inkscape:window-maximized="1" />
  <metadata
     id="metadata1414">
    <rdf:RDF>
      <cc:Work
         rdf:about="">
        <dc:format>image/svg+xml</dc:format>
        <dc:type
           rdf:resource="http://purl.org/dc/dcmitype/StillImage" />
        <dc:title></dc:title>
      </cc:Work>
    </rdf:RDF>
  </metadata>
  <g
     inkscape:label="Calque 1"
     inkscape:groupmode="layer"
     id="layer1"
     transform="translate(-38.943865,-111.63517)">
    <g
       id="g2043"
       transform="matrix(0.7043478,0,0,0.7043478,8.5940289,61.807171)">
      <path
         style="fill:#df5d5d;stroke-width:0.35277778"
         d="m 117.52539,167.97676 c 0,-0.26737 0.35143,-0.71948 0.78095,-1.00467 0.76975,-0.51109 0.75217,-0.53764 -1.22468,-1.8502 -1.1031,-0.73242 -2.10023,-1.62969 -2.21584,-1.99394 -0.26655,-0.83983 -0.55689,-0.83231 -1.67003,0.0433 -2.20981,1.73824 -3.30547,0.11429 -1.13176,-1.67747 1.23571,-1.01857 1.23814,-1.02625 0.52917,-1.66786 -1.12199,-1.01539 -0.86565,-1.99815 1.00068,-3.83642 l 1.71293,-1.68718 -2.63145,-2.58076 c -2.19149,-2.14928 -2.58993,-2.71159 -2.38309,-3.36326 0.1366,-0.43039 1.42305,-2.58414 2.8588,-4.78612 1.43573,-2.20199 2.61043,-4.08629 2.61043,-4.18734 0,-0.21961 -3.59685,-2.67192 -3.91895,-2.67192 -0.12331,0 -0.32395,0.62373 -0.44585,1.38608 -0.35664,2.23031 -1.97861,3.24846 -3.07345,1.92926 -0.3916,-0.47185 -0.36848,-1.27305 0.14001,-4.85069 l 0.60908,-4.28548 1.86867,-1.76389 c 1.02777,-0.97014 2.69158,-2.44739 3.69736,-3.28277 1.00578,-0.83539 1.82092,-1.70851 1.81142,-1.94028 -0.009,-0.23177 -1.24829,-1.73116 -2.75287,-3.33197 l -2.7356,-2.91058 -1.16267,1.19958 c -1.62209,1.67357 -1.2994,2.36805 1.75429,3.77559 2.4127,1.11208 3.25629,2.11121 2.63345,3.11899 -0.33824,0.54728 -1.82985,0.45445 -3.07925,-0.19164 l -1.09155,-0.56446 0.22725,1.42109 c 0.22028,1.3776 -0.31909,2.53006 -1.18412,2.53006 -0.66133,0 -1.359,-1.12125 -1.58707,-2.55065 -0.45787,-2.86972 -0.96817,-4.50491 -1.40584,-4.50491 -0.24184,0 -0.858,-0.32902 -1.36923,-0.73116 -1.73493,-1.36469 -1.36037,-2.18268 3.47142,-7.58102 2.42052,-2.70435 4.4049,-5.00036 4.40972,-5.10226 0.005,-0.1019 -2.25341,-1.19972 -5.0183,-2.43961 -2.7649,-1.23988 -6.86305,-3.07734 -9.107,-4.08324 l -4.07991,-1.82892 -3.152035,1.81874 c -1.733617,1.00031 -3.091695,1.96865 -3.01795,2.15186 0.07374,0.18321 1.615846,1.56029 3.42689,3.06018 4.644101,3.84619 4.483238,3.47872 3.835658,8.76198 -0.295681,2.41227 -0.623192,4.66393 -0.727809,5.00369 -0.447047,1.45183 -2.927466,1.65203 -3.653776,0.29491 -0.246083,-0.45981 -0.203814,-1.90818 0.136299,-4.67014 0.27116,-2.20199 0.466785,-4.02955 0.434725,-4.06124 -0.03207,-0.0317 -0.676046,-0.54811 -1.431078,-1.14761 l -1.372789,-1.08999 -1.170193,1.324 c -1.871673,2.11768 -1.870279,3.02089 0.0096,6.20051 1.71039,2.893 1.927475,3.77207 1.100917,4.45805 -0.860203,0.7139 -1.755324,0.10752 -2.851334,-1.93159 -0.935358,-1.74022 -1.142943,-1.9254 -1.960079,-1.74856 -1.178112,0.25497 -1.886229,-0.56127 -1.624073,-1.87204 0.412983,-2.06493 1.733057,-5.01648 2.965493,-6.63055 l 1.284474,-1.68223 -1.195437,-0.99799 c -0.657489,-0.54889 -1.371832,-0.99799 -1.587429,-0.99799 -0.317489,0 -8.498507,4.69142 -8.929193,5.12047 -0.232474,0.23158 5.456519,8.25456 6.315769,8.9069 0.474155,0.35998 3.680563,2.44572 7.12535,4.63499 4.689856,2.98055 6.317834,4.19796 6.480528,4.84618 0.1195,0.47613 1.410723,2.03615 2.869382,3.46671 2.88756,2.83194 2.82954,2.60544 1.467058,5.72642 l -0.800471,1.83361 1.296932,1.95332 c 1.395021,2.10104 1.593911,3.04243 0.784701,3.71402 -0.841728,0.69857 -1.707946,0.12899 -3.063784,-2.01456 -2.250673,-3.55827 -2.214883,-3.37765 -1.142696,-5.76681 l 0.958575,-2.13599 -2.087136,-1.86671 -2.087136,-1.86672 -1.885209,1.61059 c -2.012132,1.71901 -2.013028,1.75874 -0.06511,2.87748 0.44608,0.25619 0.455168,0.48534 0.06234,1.5717 -0.449287,1.24248 -0.42678,1.31131 0.977085,2.98807 0.790332,0.94397 1.436966,1.82026 1.436966,1.94732 0,0.12707 -0.399873,0.66066 -0.888608,1.18577 l -0.888612,0.95474 1.068179,0.88194 c 1.058224,0.87373 1.406536,1.76389 0.690192,1.76389 -0.65762,0 -2.803352,-1.92123 -2.803362,-2.51006 -7e-6,-0.31338 0.314649,-0.96981 0.699237,-1.45874 l 0.699248,-0.88894 -0.9762,-1.22839 -0.976196,-1.22839 -2.258519,2.65005 -2.258515,2.65004 0.947967,0.75589 c 0.949269,0.75692 1.262242,1.61132 0.590243,1.61132 -0.655563,0 -2.808478,-1.5805 -2.812909,-2.06501 -0.0025,-0.26263 0.789383,-1.42745 1.759522,-2.58849 0.970139,-1.16104 1.763889,-2.42248 1.763889,-2.8032 0,-0.38072 0.25691,-1.18904 0.570914,-1.79625 0.564483,-1.09159 0.55849,-1.11424 -0.532349,-2.01095 -0.606792,-0.49881 -1.101827,-1.17206 -1.100077,-1.49611 0.0018,-0.32405 0.989425,-1.4677 2.194835,-2.54145 1.20541,-1.07375 2.118223,-2.00743 2.028472,-2.07486 -0.507234,-0.38107 -9.219795,-5.90701 -9.313372,-5.90701 -0.06182,0 -0.471001,0.95889 -0.909296,2.13088 l -0.796897,2.13088 0.987863,1.83787 c 0.543324,1.01083 1.755697,3.04435 2.69416,4.51894 0.938467,1.47459 1.706302,2.9072 1.706302,3.18357 0,0.27637 -1.100931,1.8317 -2.446514,3.45628 l -2.446514,2.9538 1.564569,1.92067 c 1.864389,2.28873 1.934129,3.06447 0.500733,5.56978 -1.088492,1.90249 -1.72762,2.40847 -2.613053,2.0687 -0.920531,-0.35324 -0.935965,-1.28664 -0.04932,-2.98232 l 0.878427,-1.67996 -1.925532,-2.41219 c -1.059043,-1.3267 -1.926418,-2.68492 -1.927499,-3.01827 -0.0011,-0.33335 1.049485,-1.81168 2.334591,-3.28518 l 2.336556,-2.67908 -2.214915,-3.59399 c -1.218206,-1.9767 -2.45572,-4.00394 -2.750032,-4.50499 -0.501699,-0.8541 -0.452605,-1.11714 0.786203,-4.21228 1.29135,-3.22641 1.305916,-3.31376 0.642299,-3.8515 -0.597284,-0.48399 -2.510846,-3.11178 -5.859658,-8.04675 -0.559576,-0.82462 -1.162197,-1.49931 -1.339157,-1.49931 -0.17696,0 -1.170918,0.54321 -2.208795,1.20713 -1.758837,1.12512 -1.963159,1.40676 -3.00724,4.14514 -1.172839,3.07609 -1.761326,3.81996 -3.022069,3.81996 -0.884242,0 -1.927528,-1.02375 -1.927528,-1.89144 0,-1.05758 2.938692,-8.13498 3.687665,-8.88118 0.397132,-0.39567 3.882606,-2.539 7.745498,-4.76297 3.862893,-2.22397 7.835603,-4.51983 8.828245,-5.10191 0.992643,-0.58209 3.592206,-2.06741 5.776807,-3.300723 2.782147,-1.570654 3.873829,-2.363242 3.644266,-2.645834 -0.680911,-0.838203 -3.576924,-6.504754 -3.576924,-6.998873 0,-0.498472 1.889584,-3.666464 4.708547,-7.894132 0.746435,-1.119449 1.438109,-2.246318 1.537049,-2.504153 0.148565,-0.38716 -4.188153,-0.46879 -24.905076,-0.46879 h -25.085 V 74.62401 70.743454 h 52.91667 52.916665 v 3.296713 c 0,2.745777 -0.10781,3.394282 -0.64513,3.880555 -0.58664,0.530899 -2.80199,0.58478 -24.42987,0.594173 l -23.78472,0.01033 -2.645834,4.110607 c -1.455208,2.260834 -3.067078,4.744232 -3.581929,5.518662 l -0.9361,1.408055 0.769712,1.261981 c 0.423337,0.694089 1.082707,1.874726 1.465263,2.623638 0.382556,0.748912 0.933679,1.448045 1.224721,1.55363 0.58547,0.212399 14.280447,6.350312 17.176067,7.698092 1.00664,0.46855 1.90579,0.8519 1.99814,0.8519 0.15302,0 6.75554,3.03367 8.58378,3.94401 1.15501,0.57511 1.70792,2.16516 1.18875,3.41856 -0.38155,0.92113 -1.62258,1.80965 -2.52761,1.80965 -0.19733,0 -1.18205,-0.37501 -2.18826,-0.83335 -3.25917,-1.48458 -3.16166,-1.49457 -4.96242,0.5083 -0.89626,0.99686 -1.62956,1.97142 -1.62956,2.16569 0,0.19426 1.62967,2.12178 3.62148,4.28337 7.3712,7.9995 7.34459,7.95714 5.90352,9.39821 -1.02299,1.02299 -2.02188,0.87089 -3.41237,-0.5196 l -1.22516,-1.22515 -0.76804,0.7899 c -0.42242,0.43444 -1.91898,1.79586 -3.32568,3.02537 -1.4067,1.22951 -2.55764,2.43628 -2.55764,2.6817 0,0.24542 1.49617,1.43279 3.32481,2.63859 1.82864,1.2058 3.41469,2.42658 3.52454,2.71285 0.1972,0.51391 -0.6575,2.46847 -1.67118,3.82172 -0.47336,0.63193 -0.41296,0.91176 0.65428,3.03102 l 1.17579,2.33481 3.28686,1.25842 c 2.85285,1.09227 3.28685,1.36747 3.28685,2.08426 0,0.72672 -0.15286,0.8172 -1.27369,0.75389 -1.05221,-0.0594 -1.34361,0.0815 -1.6757,0.81035 -0.557,1.22247 -0.5177,1.38868 0.43049,1.8207 0.9463,0.43117 1.93893,3.45365 1.33316,4.05941 -0.53826,0.53826 -1.05978,-0.009 -1.31749,-1.38286 -0.16556,-0.88251 -0.54303,-1.43977 -1.24615,-1.83971 -1.14178,-0.64944 -1.27186,-1.43839 -0.44517,-2.70008 0.80676,-1.23126 0.47803,-1.70028 -1.7139,-2.44534 -1.76763,-0.60083 -2.02375,-0.83017 -3.08699,-2.76421 l -1.15944,-2.10901 -0.6393,0.8419 c -1.82331,2.40114 -2.11137,1.86282 4.58378,8.56619 4.98354,4.98965 6.07512,6.25907 5.9773,6.95119 -0.082,0.58042 -0.38526,0.88429 -0.96403,0.96611 -0.66993,0.0947 -1.56157,-0.59517 -4.31647,-3.33973 l -3.47212,-3.45909 -1.40031,1.36737 -1.40032,1.36737 0.89208,1.06017 c 0.55983,0.66532 0.82345,1.32262 0.70781,1.76481 -0.28616,1.09429 0.26903,1.77805 2.76313,3.40302 1.26943,0.82707 2.30133,1.68355 2.29312,1.90329 -0.0155,0.41504 -2.25579,1.98704 -2.83175,1.98704 -0.18058,0 -0.32832,-0.21876 -0.32832,-0.48614 z"
         id="path2047"
         inkscape:connector-curvature="0" />
      <path
         style="fill:#d00c0c;stroke-width:0.35277778"
         d="m 117.72707,168.15104 c -0.10177,-0.16467 0.12871,-0.58335 0.51219,-0.93039 0.38348,-0.34705 0.69724,-0.74859 0.69724,-0.89232 0,-0.14373 -0.78095,-0.76246 -1.73546,-1.37497 -0.9545,-0.6125 -1.99705,-1.51287 -2.31677,-2.00083 l -0.58131,-0.8872 -1.24371,0.94863 c -1.09279,0.83351 -1.30647,0.88585 -1.76097,0.43136 -0.45449,-0.4545 -0.36491,-0.65102 0.73826,-1.61962 1.45383,-1.27647 1.50469,-1.49462 0.54996,-2.35863 -1.06165,-0.96079 -0.88012,-1.49475 1.14653,-3.37245 l 1.85208,-1.71595 -2.55764,-2.57938 c -1.4067,-1.41866 -2.55764,-2.82482 -2.55764,-3.12482 0,-0.29999 1.25953,-2.51118 2.79895,-4.91375 1.53941,-2.40257 2.71953,-4.49679 2.62248,-4.65383 -0.18391,-0.29756 -3.90891,-2.74677 -4.17757,-2.74677 -0.0845,0 -0.26102,0.59531 -0.39236,1.32292 -0.34689,1.92163 -0.77029,2.55764 -1.70266,2.55764 -1.63951,0 -1.76862,-0.69086 -0.97239,-5.20303 l 0.73155,-4.14558 1.69253,-1.5875 c 0.93089,-0.87313 2.63792,-2.39901 3.79338,-3.39084 l 2.10085,-1.80333 -0.99899,-1.19528 c -1.98253,-2.37208 -4.77332,-5.25222 -5.08928,-5.25222 -0.17751,0 -0.75341,0.56463 -1.27978,1.25474 -1.40673,1.84431 -1.05602,2.56516 1.92611,3.95898 2.04056,0.95375 2.47496,1.30316 2.47496,1.99073 0,1.11324 -0.82563,1.36891 -2.35585,0.72954 -0.69195,-0.28911 -1.35891,-0.52566 -1.48213,-0.52566 -0.12323,0 -0.16901,0.69194 -0.10175,1.53765 0.0921,1.15834 -0.016,1.59073 -0.43843,1.75282 -0.83306,0.31967 -1.60613,-0.0944 -1.77028,-0.94813 -0.31803,-1.65418 -1.26654,-5.63804 -1.34877,-5.66502 -1.37365,-0.45066 -2.21831,-1.25262 -2.31096,-2.19413 -0.0936,-0.95116 0.4447,-1.70322 4.36142,-6.09331 2.45752,-2.75453 4.39821,-5.07824 4.31264,-5.1638 -0.19917,-0.19917 -16.367935,-7.51762 -17.630618,-7.98012 -0.82429,-0.30193 -1.392097,-0.10003 -4.307255,1.5316 -1.846788,1.03366 -3.324535,1.97726 -3.283881,2.09689 0.04066,0.11963 1.661421,1.52911 3.601699,3.13217 1.940278,1.60307 3.74275,3.31301 4.005492,3.79987 0.397034,0.7357 0.40289,1.57704 0.03468,4.98171 -0.530899,4.90894 -0.988508,6.0368 -2.449319,6.0368 -1.68692,0 -1.921528,-0.88941 -1.408793,-5.34087 0.482836,-4.19194 0.466266,-4.25439 -1.500516,-5.65487 l -1.028344,-0.73224 -1.201205,1.16425 c -0.660661,0.64034 -1.370993,1.67873 -1.578518,2.30753 -0.347091,1.0517 -0.230374,1.40171 1.457205,4.36981 1.65082,2.90346 1.780188,3.28088 1.29195,3.76912 -0.859271,0.85927 -1.792005,0.28126 -2.924496,-1.81231 -0.920112,-1.70094 -1.164266,-1.92103 -2.055008,-1.85243 -1.712507,0.13188 -1.839257,-0.66025 -0.614028,-3.83738 0.602763,-1.56302 1.650616,-3.48987 2.328556,-4.28189 0.677944,-0.79202 1.232623,-1.5073 1.232623,-1.5895 0,-0.0822 -0.643922,-0.66693 -1.430934,-1.2994 l -1.430937,-1.14993 -4.742674,2.71585 c -2.608473,1.49371 -4.742678,2.77779 -4.742678,2.8535 0,0.0757 0.755743,1.20979 1.679428,2.52018 0.923685,1.31039 2.233372,3.2 2.910416,4.19914 0.677044,0.99914 1.70724,2.13432 2.289323,2.52263 0.582084,0.38831 2.645834,1.72158 4.586112,2.96283 1.940278,1.24124 4.601319,2.94381 5.913427,3.78347 1.429526,0.91481 2.464361,1.84029 2.582048,2.3092 0.10802,0.43038 1.376041,1.95429 2.817823,3.38645 1.441785,1.43216 2.621425,2.8822 2.621425,3.2223 0,0.34011 -0.419358,1.47343 -0.931902,2.51849 l -0.931904,1.90011 1.056082,1.54729 c 1.752601,2.56777 1.972621,3.11047 1.494561,3.6865 -0.854925,1.03012 -1.662599,0.53449 -3.3003,-2.02526 -0.89093,-1.39253 -1.619871,-2.82655 -1.619871,-3.18672 0,-0.36017 0.386937,-1.41845 0.859864,-2.35172 l 0.859864,-1.69686 -2.016622,-1.99558 c -1.109141,-1.09757 -2.141305,-1.99558 -2.293698,-1.99558 -0.152389,0 -1.06052,0.67469 -2.018069,1.49931 -1.630369,1.40404 -2.200204,2.38125 -1.388561,2.38125 0.194027,0 0.672966,0.32019 1.064306,0.71153 0.650289,0.65029 0.66761,0.79645 0.201235,1.69832 -0.491339,0.95014 -0.452678,1.05943 1.040786,2.94202 l 1.551079,1.95522 -0.87037,0.81767 c -1.114047,1.04659 -1.097682,1.20708 0.245467,2.40719 1.598259,1.42804 0.722157,1.64487 -0.952822,0.23582 l -1.397737,-1.17583 0.79375,-1.07752 c 1.004306,-1.36335 1.000157,-1.4155 -0.229355,-2.8833 l -1.023101,-1.2214 -0.704134,0.89099 c -0.387269,0.49004 -1.431537,1.76004 -2.320594,2.82222 l -1.616463,1.93124 1.138837,0.96064 c 0.626361,0.52836 0.919452,0.96492 0.651309,0.97014 -0.573719,0.0112 -2.86386,-1.34934 -2.86386,-1.70134 0,-0.1332 0.789717,-1.19182 1.754932,-2.35248 0.96521,-1.16066 1.75896,-2.39444 1.763889,-2.74171 0.0049,-0.34728 0.32186,-1.24476 0.704296,-1.9944 l 0.695339,-1.36298 -1.224506,-0.93397 c -0.673477,-0.51369 -1.221804,-1.12434 -1.218502,-1.357 0.0032,-0.23266 1.035178,-1.29168 2.293056,-2.35338 1.257879,-1.0617 2.27868,-2.0142 2.26845,-2.11667 -0.01023,-0.10246 -2.193044,-1.56788 -4.850695,-3.25649 l -4.832093,-3.07019 -0.744978,1.65908 c -1.331603,2.9655 -1.338217,2.89964 0.611875,6.09426 3.271615,5.35953 3.565765,5.95472 3.348542,6.77549 -0.114081,0.43108 -1.159954,1.89502 -2.324153,3.25322 -1.164202,1.35819 -2.118819,2.59921 -2.121369,2.75782 -0.0025,0.15861 0.709736,1.16534 1.582861,2.2372 0.873125,1.07185 1.5875,2.19276 1.5875,2.4909 0,0.78918 -2.109682,4.3516 -2.714481,4.58368 -0.283375,0.10874 -0.778587,-0.0657 -1.100472,-0.38753 -0.545141,-0.54514 -0.531111,-0.68745 0.204724,-2.07671 0.434481,-0.82031 0.789527,-1.66968 0.788987,-1.88748 -5.39e-4,-0.21781 -0.79473,-1.38898 -1.764869,-2.6026 -0.970139,-1.21363 -1.763889,-2.513 -1.763889,-2.8875 0,-0.37449 0.9525,-1.81246 2.116666,-3.19549 1.164167,-1.38303 2.114875,-2.68358 2.112688,-2.89012 -0.0021,-0.20653 -1.113441,-2.19676 -2.469445,-4.42274 -1.356006,-2.22598 -2.465465,-4.29878 -2.465465,-4.60621 0,-0.30743 0.548085,-1.8993 1.217967,-3.53748 l 1.217967,-2.97852 -0.808609,-0.70556 c -0.712668,-0.62184 -2.667213,-3.29509 -6.00812,-8.21735 -1.140963,-1.68102 -1.144633,-1.68099 -3.820384,0.0325 -1.578557,1.01089 -1.952313,1.46974 -2.523637,3.09822 -1.261755,3.59647 -1.888032,4.55744 -2.970132,4.55744 -1.201646,0 -1.827275,-0.5768 -1.827275,-1.68464 0,-1.18102 2.713536,-7.9861 3.4479,-8.64675 0.62926,-0.56609 7.135418,-4.38519 19.207504,-11.27475 3.826232,-2.183638 6.961544,-4.094821 6.967362,-4.247072 0.0058,-0.152251 -0.73539,-1.581001 -1.64712,-3.175 -2.370822,-4.144964 -2.334045,-4.408747 1.401124,-10.049298 1.693334,-2.557137 3.078787,-4.732675 3.078787,-4.834528 0,-0.101853 -11.350625,-0.185187 -25.223612,-0.185187 H 43.089275 V 74.62401 70.743454 h 52.91667 52.916665 v 3.113506 c 0,2.79838 -0.0826,3.191141 -0.81648,3.880555 l -0.81649,0.76705 H 123.60003 99.910412 l -3.398351,5.177648 c -1.869091,2.847706 -3.470741,5.366292 -3.559214,5.596857 -0.229242,0.59739 2.288473,5.046466 3.184903,5.628073 0.412577,0.267681 6.78264,3.199896 14.1557,6.516037 13.3649,6.01105 14.99305,6.93566 14.99305,8.51432 0,0.91851 -1.5323,2.43373 -2.46115,2.43373 -0.40114,0 -1.79742,-0.4879 -3.10284,-1.08422 l -2.37351,-1.08422 -1.85208,2.02327 c -1.01865,1.11281 -1.85208,2.13627 -1.85208,2.27438 0,0.1381 0.92624,1.26334 2.05832,2.50052 8.73959,9.55105 8.79081,9.62425 7.6302,10.90671 -0.87714,0.96923 -1.70659,0.86367 -3.14634,-0.40044 l -1.24347,-1.09179 -3.35491,2.88609 c -2.33782,2.01113 -3.35238,3.11752 -3.34657,3.64943 0.006,0.56983 0.85578,1.32267 3.35139,2.96988 2.16614,1.42975 3.34304,2.43003 3.34304,2.84135 0,0.34914 -0.49139,1.40964 -1.09198,2.35667 l -1.09198,1.72188 0.98888,2.06899 c 0.54389,1.13794 1.21517,2.25679 1.49174,2.48632 0.27657,0.22953 1.87078,0.97745 3.54268,1.66205 3.28638,1.34567 4.01933,2.28037 1.81413,2.31348 -1.01097,0.0152 -1.34774,0.22738 -1.92238,1.21129 -0.48626,0.8326 -0.57033,1.23501 -0.27833,1.33234 1.01899,0.33966 1.80177,1.43224 2.01883,2.81783 0.30431,1.94255 -0.36763,2.01131 -0.88484,0.0906 -0.26832,-0.99646 -0.68529,-1.56697 -1.42471,-1.94934 -1.24319,-0.64288 -1.26527,-0.81499 -0.31182,-2.43097 0.40345,-0.6838 0.64989,-1.37864 0.54764,-1.54408 -0.10225,-0.16545 -1.08666,-0.60699 -2.18758,-0.9812 -1.77103,-0.60199 -2.11649,-0.8837 -2.99816,-2.44483 -0.54807,-0.97044 -1.13164,-1.98714 -1.29682,-2.25932 -0.22485,-0.37051 -0.59729,-0.0321 -1.48194,1.34649 l -1.18161,1.84138 6.23578,6.2708 c 6.21113,6.246 6.75018,7.02425 5.26114,7.59564 -0.37177,0.14266 -1.69693,-0.92199 -4.14011,-3.3262 l -3.59333,-3.53603 -1.47706,1.26431 c -0.81238,0.69537 -1.47706,1.42745 -1.47706,1.62686 0,0.19941 0.38311,0.81785 0.85135,1.37433 0.54246,0.64468 0.78242,1.27534 0.66138,1.73822 -0.23902,0.914 0.53946,1.79589 3.16158,3.58151 1.11566,0.75975 2.02847,1.43373 2.02847,1.49772 0,0.34054 -2.8169,1.91525 -2.97332,1.66216 z"
         id="path2045"
         inkscape:connector-curvature="0" />
    </g>
    <path
       style="fill:none;stroke:#000000;stroke-width:0.18665215;stroke-linecap:butt;stroke-linejoin:miter;stroke-miterlimit:4;stroke-dasharray:none;stroke-opacity:1;marker-start:url(#Arrow2Sstart)"
       d="m 97.952974,168.2225 c 6.027426,1.96679 6.424316,2.04669 6.424316,2.04669"
       id="path2049"
       inkscape:connector-curvature="0" />
    <path
       style="fill:none;stroke:#000000;stroke-width:0.18665215;stroke-linecap:butt;stroke-linejoin:miter;stroke-miterlimit:4;stroke-dasharray:none;stroke-opacity:1;marker-start:url(#Arrow2Sstart-3)"
       d="m 89.59011,149.67653 c 6.338918,0.12746 6.741883,0.0884 6.741883,0.0884"
       id="path2049-7"
       inkscape:connector-curvature="0" />
    <text
       xml:space="preserve"
       style="font-style:normal;font-weight:normal;font-size:7.45434713px;line-height:1.25;font-family:sans-serif;letter-spacing:0px;word-spacing:0px;fill:#000000;fill-opacity:1;stroke:none;stroke-width:0.18635868"
       x="97.254517"
       y="149.26109"
       id="text3671"><tspan
         sodipodi:role="line"
         x="97.254517"
         y="149.26109"
         style="font-style:normal;font-variant:normal;font-weight:normal;font-stretch:normal;font-size:1.4908694px;font-family:monospace;-inkscape-font-specification:monospace;stroke-width:0.18635868"
         id="tspan3681">Extrémité inactive</tspan><tspan
         sodipodi:role="line"
         x="97.254517"
         y="158.57903"
         style="font-style:normal;font-variant:normal;font-weight:normal;font-stretch:normal;font-size:1.4908694px;font-family:monospace;-inkscape-font-specification:monospace;stroke-width:0.18635868"
         id="tspan3685" /></text>
    <text
       xml:space="preserve"
       style="font-style:normal;font-weight:normal;font-size:7.45434713px;line-height:1.25;font-family:sans-serif;letter-spacing:0px;word-spacing:0px;fill:#000000;fill-opacity:1;stroke:none;stroke-width:0.18635868"
       x="97.772209"
       y="151.073"
       id="text3689"><tspan
         sodipodi:role="line"
         id="tspan3687"
         x="97.772209"
         y="151.073"
         style="font-style:normal;font-variant:normal;font-weight:normal;font-stretch:normal;font-size:1.4908694px;font-family:monospace;-inkscape-font-specification:monospace;stroke-width:0.18635868">(manque de place)</tspan></text>
    <text
       xml:space="preserve"
       style="font-style:normal;font-weight:normal;font-size:7.45434713px;line-height:1.25;font-family:sans-serif;letter-spacing:0px;word-spacing:0px;fill:#000000;fill-opacity:1;stroke:none;stroke-width:0.18635868"
       x="97.831711"
       y="171.96619"
       id="text3671-5"><tspan
         sodipodi:role="line"
         x="97.831711"
         y="171.96619"
         style="font-style:normal;font-variant:normal;font-weight:normal;font-stretch:normal;font-size:1.4908694px;font-family:monospace;-inkscape-font-specification:monospace;stroke-width:0.18635868"
         id="tspan3712">Extrémité active</tspan><tspan
         sodipodi:role="line"
         x="97.831711"
         y="181.28412"
         style="font-style:normal;font-variant:normal;font-weight:normal;font-stretch:normal;font-size:1.4908694px;font-family:monospace;-inkscape-font-specification:monospace;stroke-width:0.18635868"
         id="tspan3685-5" /></text>
  </g>
</svg>
